{"title":"Miss Lovely (2014) Hindi Non-Retail DVDRip MP3","uid":9526900,"size":728558792,"categoryP":"video","categoryS":"movies","magnet":"?xt=urn:btih:517189bd3f98fdfb14a14c0ace8a081ff4e9aec7&amp;dn=Miss+Lovely+%282014%29+Hindi+Non-Retail+DVDRip+MP3&amp;tr=udp%3A%2F%2Ftracker.openbittorrent.com%3A80&amp;tr=udp%3A%2F%2Fopen.demonii.com%3A1337&amp;tr=udp%3A%2F%2Ftracker.coppersurfer.tk%3A6969&amp;tr=udp%3A%2F%2Fexodus.desync.com%3A6969","seeders":1,"leechers":0,"uploader":"ashish.p","files":1,"time":1390764885,"description":"General \nUnique ID : 187195496853328294202146763595368673283 (0x8CD48A919DC0768793BB7E477090B003) \nComplete name : Miss Lovely (2014) Hindi Non-Retail DVDRip MP3 \nFormat : Matroska \nFormat version : Version 4 / Version 2 \nFile size : 695 MiB \nDuration : 1h 51mn \nOverall bit rate : 869 Kbps \nMovie name : JaiHo 2014_ NoN-Retail_DVDRip_iSupari org \nEncoded date : UTC 2014-01-25 21:04:29 \nWriting application : mkvmerge v6.7.0 ('Back to the Ground') 32bit built on Jan 8 2014 15:03:17 \nWriting library : libebml v1.3.0 + libmatroska v1.4.1 \n\nVideo \nID : 1 \nFormat : MPEG-4 Visual \nFormat profile : Advanced Simple@L5 \nFormat settings, BVOP : Yes \nFormat settings, QPel : No \nFormat settings, GMC : No warppoints \nFormat settings, Matrix : Default (H.263) \nCodec ID : V_MS/VFW/FOURCC / XVID \nCodec ID/Hint : XviD \nDuration : 1h 51mn \nBit rate : 772 Kbps \nWidth : 640 pixels \nHeight : 272 pixels \nDisplay aspect ratio : 2.35:1 \nFrame rate mode : Constant \nFrame rate : 24.000 fps \nColor space : YUV \nChroma subsampling : 4:2:0 \nBit depth : 8 bits \nScan type : Progressive \nCompression mode : Lossy \nBits/(Pixel*Frame) : 0.185 \nStream size : 617 MiB (89%) \nWriting library : XviD 1.2.1 (UTC 2008-12-04) \nDefault : Yes \nForced : No \n\nAudio \nID : 2 \nFormat : MPEG Audio \nFormat version : Version 1 \nFormat profile : Layer 3 \nMode : Joint stereo \nMode extension : MS Stereo \nCodec ID : A_MPEG/L3 \nCodec ID/Hint : MP3 \nDuration : 1h 51mn \nBit rate mode : Constant \nBit rate : 80.0 Kbps \nChannel(s) : 2 channels \nSampling rate : 32.0 KHz \nCompression mode : Lossy \nStream size : 63.9 MiB (9%) \nWriting library : LAME3.99r \nEncoding settings : -m j -V 4 -q 2 -lowpass 13.5 -b 80 \nLanguage : Hindi\nDefault : Yes \nForced : No \n","torrent":{"xt":"urn:btih:517189bd3f98fdfb14a14c0ace8a081ff4e9aec7","amp;dn":"Miss+Lovely+%282014%29+Hindi+Non-Retail+DVDRip+MP3","amp;tr":["udp%3A%2F%2Ftracker.openbittorrent.com%3A80","udp%3A%2F%2Fopen.demonii.com%3A1337","udp%3A%2F%2Ftracker.coppersurfer.tk%3A6969","udp%3A%2F%2Fexodus.desync.com%3A6969"],"infoHash":"517189bd3f98fdfb14a14c0ace8a081ff4e9aec7","infoHashBuffer":{"type":"Buffer","data":[81,113,137,189,63,152,253,251,20,161,76,10,206,138,8,31,244,233,174,199]},"announce":[],"urlList":[]}}